# xmcd
# 
# Track frame offsets:
#     187
#     27352
#     66525
#     102237
#     145675
# 
# Disc length: 2587
# 
# Revision: 5
# Processed by: cddbd v1.5.2PL0 Copyright (c) Steve Scherf et al.
# Submitted via: BonkEnc v1.0.8
# 
DISCID=430a1905
DTITLE=Albert Mangelsdorff, Jaco Pastorius, Alphonse Mouzon - Trilogue - Live!
DYEAR=1976
DGENRE=Free, Avant
TTITLE0=Trilogue
TTITLE1=Zores Mores
TTITLE2=Foreign Fun
TTITLE3=Accidental Meeting
TTITLE4=Ant Steps On An Elephant's Toe
EXTD=
EXTT0=
EXTT1=
EXTT2=
EXTT3=
EXTT4=
PLAYORDER=
